<svg width="12" height="13" viewBox="0 0 12 13" fill="none" xmlns="http://www.w3.org/2000/svg">
<path d="M6.72654 8.29766C6.70892 8.28022 6.68512 8.27043 6.66033 8.27043C6.63553 8.27043 6.61174 8.28022 6.59412 8.29766L5.2324 9.65938C4.60193 10.2899 3.53787 10.3566 2.84177 9.65938C2.14451 8.96212 2.2113 7.89923 2.84177 7.26876L4.20349 5.90704C4.23982 5.87071 4.23982 5.81094 4.20349 5.77462L3.73708 5.30821C3.71946 5.29076 3.69567 5.28098 3.67087 5.28098C3.64608 5.28098 3.62228 5.29076 3.60466 5.30821L2.24294 6.66993C1.25154 7.66133 1.25154 9.26563 2.24294 10.2559C3.23435 11.2461 4.83865 11.2473 5.82888 10.2559L7.1906 8.89415C7.22693 8.85782 7.22693 8.79805 7.1906 8.76173L6.72654 8.29766ZM9.75701 2.74297C8.7656 1.75157 7.1613 1.75157 6.17107 2.74297L4.80818 4.10469C4.79073 4.12231 4.78094 4.14611 4.78094 4.1709C4.78094 4.1957 4.79073 4.2195 4.80818 4.23712L5.27341 4.70235C5.30974 4.73868 5.36951 4.73868 5.40584 4.70235L6.76755 3.34063C7.39802 2.71016 8.46208 2.64337 9.15818 3.34063C9.85544 4.0379 9.78865 5.10079 9.15818 5.73126L7.79646 7.09298C7.77901 7.1106 7.76923 7.13439 7.76923 7.15919C7.76923 7.18398 7.77901 7.20778 7.79646 7.2254L8.26287 7.6918C8.29919 7.72813 8.35896 7.72813 8.39529 7.6918L9.75701 6.33008C10.7472 5.33868 10.7472 3.73438 9.75701 2.74297ZM7.14958 4.8629C7.13196 4.84545 7.10817 4.83566 7.08337 4.83566C7.05858 4.83566 7.03478 4.84545 7.01716 4.8629L4.36287 7.51602C4.34542 7.53364 4.33563 7.55744 4.33563 7.58223C4.33563 7.60703 4.34542 7.63082 4.36287 7.64844L4.82693 8.11251C4.86326 8.14883 4.92302 8.14883 4.95935 8.11251L7.61248 5.45938C7.6488 5.42305 7.6488 5.36329 7.61248 5.32696L7.14958 4.8629Z" fill="#AF48FF"/>
</svg>
