<svg width="12" height="12" viewBox="0 0 12 12" fill="none" xmlns="http://www.w3.org/2000/svg">
<path d="M7.75 0.5H3.75C3.41848 0.5 3.10054 0.631696 2.86612 0.866117C2.6317 1.10054 2.5 1.41848 2.5 1.75V10.25C2.5 10.5815 2.6317 10.8995 2.86612 11.1339C3.10054 11.3683 3.41848 11.5 3.75 11.5H7.75C8.08152 11.5 8.39946 11.3683 8.63388 11.1339C8.8683 10.8995 9 10.5815 9 10.25V1.75C9 1.41848 8.8683 1.10054 8.63388 0.866117C8.39946 0.631696 8.08152 0.5 7.75 0.5ZM5.75 11C5.335 11 5 10.665 5 10.25C5 9.835 5.335 9.5 5.75 9.5C6.165 9.5 6.5 9.835 6.5 10.25C6.5 10.665 6.165 11 5.75 11ZM8 9H3.5V2H8V9Z" fill="#AF48FF"/>
</svg>
