<svg width="12" height="12" viewBox="0 0 12 12" fill="none" xmlns="http://www.w3.org/2000/svg">
<path d="M10.875 1.875H1.125C0.917578 1.875 0.75 2.04258 0.75 2.25V9.75C0.75 9.95742 0.917578 10.125 1.125 10.125H10.875C11.0824 10.125 11.25 9.95742 11.25 9.75V2.25C11.25 2.04258 11.0824 1.875 10.875 1.875ZM10.4062 3.17344V9.28125H1.59375V3.17344L1.27031 2.92148L1.73086 2.32969L2.23242 2.71992H9.76875L10.2703 2.32969L10.7309 2.92148L10.4062 3.17344ZM9.76875 2.71875L6 5.64844L2.23125 2.71875L1.72969 2.32852L1.26914 2.92031L1.59258 3.17227L5.5957 6.28477C5.71083 6.3742 5.85246 6.42275 5.99824 6.42275C6.14403 6.42275 6.28566 6.3742 6.40078 6.28477L10.4062 3.17344L10.7297 2.92148L10.2691 2.32969L9.76875 2.71875Z" fill="#AF48FF"/>
</svg>
