<svg width="12" height="12" viewBox="0 0 12 12" fill="none" xmlns="http://www.w3.org/2000/svg">
<path d="M6 0C5.26555 0 4.56119 0.291757 4.04186 0.811089C3.52253 1.33042 3.23077 2.03479 3.23077 2.76923C3.23077 4.29877 5.63954 8.09677 5.63954 10.1538H6.36046C6.36046 8.10369 8.76923 4.17415 8.76923 2.76923C8.76923 2.03479 8.47747 1.33042 7.95814 0.811089C7.43881 0.291757 6.73445 0 6 0V0ZM6 1.38462C6.36722 1.38462 6.71941 1.53049 6.97907 1.79016C7.23874 2.04983 7.38462 2.40201 7.38462 2.76923C7.38462 3.13645 7.23874 3.48864 6.97907 3.7483C6.71941 4.00797 6.36722 4.15385 6 4.15385C5.63278 4.15385 5.28059 4.00797 5.02093 3.7483C4.76126 3.48864 4.61538 3.13645 4.61538 2.76923C4.61538 2.40201 4.76126 2.04983 5.02093 1.79016C5.28059 1.53049 5.63278 1.38462 6 1.38462ZM3.15877 7.97585C3.14891 7.98043 3.13921 7.98535 3.12969 7.99062C2.27815 8.14015 1.55631 8.34508 1.00985 8.62523C0.736154 8.76508 0.500308 8.93077 0.317538 9.12969C0.134308 9.32908 0 9.588 0 9.87969C0 10.3172 0.289846 10.6592 0.634615 10.9038C0.979385 11.1485 1.41462 11.3354 1.94723 11.4951C3.01108 11.8145 4.43308 12 6 12C7.56692 12 8.98892 11.8145 10.0528 11.4951C10.5849 11.3354 11.0206 11.1489 11.3654 10.9038C11.7102 10.6592 12 10.3172 12 9.87969C12 9.58708 11.8662 9.31477 11.6825 9.11539C11.4988 8.916 11.2652 8.76508 10.9902 8.62477C10.4409 8.34462 9.71215 8.13969 8.85554 7.99015C8.79531 7.97848 8.73336 7.97893 8.6733 7.99148C8.61325 8.00403 8.5563 8.02843 8.50579 8.06325C8.45528 8.09807 8.41221 8.14261 8.37912 8.19426C8.34602 8.24592 8.32355 8.30365 8.31303 8.36409C8.3025 8.42453 8.30414 8.48647 8.31783 8.54627C8.33152 8.60607 8.357 8.66254 8.39277 8.71238C8.42854 8.76223 8.47389 8.80443 8.52617 8.83654C8.57845 8.86865 8.6366 8.89001 8.69723 8.89938C9.49246 9.03785 10.1534 9.234 10.572 9.44723C10.7815 9.55338 10.9288 9.66739 11.0049 9.75C11.0811 9.83262 11.0769 9.86539 11.0769 9.87969C11.0769 9.90138 11.0474 10.0011 10.8318 10.1538C10.6163 10.3066 10.2489 10.4742 9.77862 10.6154C8.83846 10.8974 7.49169 11.0769 6 11.0769C4.50831 11.0769 3.16154 10.8974 2.22092 10.6154C1.75108 10.4742 1.38369 10.3066 1.16862 10.1538C0.952615 10.0011 0.923077 9.90138 0.923077 9.87969C0.923077 9.86585 0.919846 9.83215 0.995077 9.75C1.07077 9.66785 1.21985 9.55338 1.428 9.44723C1.84338 9.23446 2.49785 9.03831 3.28846 8.89892C3.34996 8.89146 3.40936 8.87181 3.46318 8.84112C3.517 8.81043 3.56416 8.76933 3.60191 8.7202C3.63966 8.67108 3.66724 8.61492 3.68303 8.55502C3.69883 8.49511 3.70252 8.43266 3.6939 8.37131C3.68528 8.30996 3.66452 8.25094 3.63283 8.19771C3.60114 8.14447 3.55915 8.09809 3.50933 8.06127C3.45951 8.02445 3.40284 7.99793 3.34265 7.98327C3.28246 7.9686 3.21995 7.96608 3.15877 7.97585Z" fill="#222222"/>
</svg>
