<svg width="12" height="12" viewBox="0 0 12 12" fill="none" xmlns="http://www.w3.org/2000/svg">
<path d="M5.99531 0.894135C3.09727 0.892963 0.75 3.23906 0.75 6.13476C0.75 8.4246 2.21836 10.3711 4.26328 11.0859C4.53867 11.1551 4.49648 10.9594 4.49648 10.8258V9.91757C2.90625 10.1039 2.8418 9.05156 2.73516 8.87578C2.51953 8.50781 2.00977 8.41406 2.16211 8.23828C2.52422 8.05195 2.89336 8.28515 3.32109 8.91679C3.63047 9.375 4.23398 9.29765 4.53984 9.22148C4.60664 8.94609 4.74961 8.69999 4.94648 8.50898C3.29883 8.21367 2.61211 7.2082 2.61211 6.01289C2.61211 5.43281 2.80312 4.8996 3.17812 4.46953C2.93906 3.76054 3.20039 3.15351 3.23555 3.06328C3.91641 3.00234 4.62422 3.55078 4.6793 3.59414C5.06602 3.48984 5.50781 3.43476 6.00234 3.43476C6.49922 3.43476 6.94219 3.49218 7.33242 3.59765C7.46484 3.49687 8.12109 3.02578 8.75391 3.0832C8.78789 3.17343 9.04336 3.7664 8.81836 4.46601C9.19805 4.89726 9.39141 5.43515 9.39141 6.0164C9.39141 7.21406 8.7 8.2207 7.04766 8.51132C7.18918 8.65051 7.30156 8.81649 7.37822 8.99959C7.45488 9.18269 7.49429 9.37923 7.49414 9.57773V10.8961C7.50352 11.0016 7.49414 11.1059 7.66992 11.1059C9.74531 10.4062 11.2395 8.4457 11.2395 6.13593C11.2395 3.23906 8.89102 0.894135 5.99531 0.894135Z" fill="#AF48FF"/>
</svg>
