<svg width="12" height="12" viewBox="0 0 12 12" fill="none" xmlns="http://www.w3.org/2000/svg">
<path d="M9.93398 1.3125H2.06602C1.65 1.3125 1.3125 1.65 1.3125 2.06602V9.93398C1.3125 10.35 1.65 10.6875 2.06602 10.6875H9.93398C10.35 10.6875 10.6875 10.35 10.6875 9.93398V2.06602C10.6875 1.65 10.35 1.3125 9.93398 1.3125ZM9.93398 9.9375C4.68633 9.93633 2.0625 9.93516 2.0625 9.93398C2.06367 4.68633 2.06484 2.0625 2.06602 2.0625C7.31367 2.06367 9.9375 2.06484 9.9375 2.06602C9.93633 7.31367 9.93516 9.9375 9.93398 9.9375ZM2.70234 4.82695H4.09336V9.30117H2.70234V4.82695ZM3.39844 4.21523C3.84258 4.21523 4.20469 3.8543 4.20469 3.40898C4.20469 3.30311 4.18383 3.19826 4.14332 3.10045C4.1028 3.00263 4.04341 2.91375 3.96854 2.83888C3.89368 2.76401 3.80479 2.70462 3.70698 2.66411C3.60916 2.62359 3.50432 2.60273 3.39844 2.60273C3.29256 2.60273 3.18772 2.62359 3.0899 2.66411C2.99208 2.70462 2.9032 2.76401 2.82833 2.83888C2.75347 2.91375 2.69408 3.00263 2.65356 3.10045C2.61304 3.19826 2.59219 3.30311 2.59219 3.40898C2.59102 3.8543 2.95195 4.21523 3.39844 4.21523ZM6.35508 7.0875C6.35508 6.50391 6.46641 5.93906 7.18945 5.93906C7.90195 5.93906 7.9125 6.60586 7.9125 7.125V9.30117H9.30234V6.84727C9.30234 5.64258 9.04219 4.71562 7.63477 4.71562C6.95859 4.71562 6.50508 5.08711 6.31875 5.43867H6.3V4.82695H4.96523V9.30117H6.35508V7.0875Z" fill="#AF48FF"/>
</svg>
